/* XPM */
static char *Untitled1719339851[] = {
/* columns rows colors chars-per-pixel */
"64 64 252 2 ",
"   c #010101",
".  c #0E0A04",
"X  c #0B0D0A",
"o  c #050606",
"O  c #140C04",
"+  c #130F0A",
"@  c #1A0E07",
"#  c #14120C",
"$  c #1B130B",
"%  c #17150B",
"&  c #131412",
"*  c #1B1611",
"=  c #1C1914",
"-  c #1B1C19",
";  c #0F110E",
":  c #23150B",
">  c #25180B",
",  c #341B0B",
"<  c #231C13",
"1  c #261C16",
"2  c #311A0F",
"3  c #1D211C",
"4  c #24231D",
"5  c #2C251C",
"6  c #2C2417",
"7  c #37271A",
"8  c #3F200E",
"9  c #2C2B24",
"0  c #262825",
"q  c #3B2D23",
"w  c #342C25",
"e  c #33342B",
"r  c #3B3228",
"t  c #343532",
"y  c #393A35",
"u  c #2E342D",
"i  c #212022",
"p  c #482A1A",
"a  c #542D1C",
"s  c #4D2B13",
"d  c #473529",
"f  c #533C2C",
"g  c #5B3D2B",
"h  c #573724",
"j  c #4D3C33",
"k  c #413833",
"l  c #533E31",
"z  c #593D31",
"x  c #432F22",
"c  c #6D3E31",
"v  c #3D413C",
"b  c #58412B",
"n  c #41423D",
"m  c #4F403B",
"M  c #594537",
"N  c #58513E",
"B  c #64422D",
"V  c #644433",
"C  c #644B3C",
"Z  c #6B4D3C",
"A  c #6A4734",
"S  c #754B38",
"D  c #6B513C",
"F  c #74523D",
"G  c #7B553C",
"H  c #474A45",
"J  c #5A4D46",
"K  c #4D524B",
"L  c #57544B",
"P  c #555B54",
"I  c #5B5D56",
"U  c #5C5E59",
"Y  c #555652",
"T  c #674E41",
"R  c #695648",
"E  c #735443",
"W  c #755A44",
"Q  c #7C5A45",
"!  c #745B4B",
"~  c #7B5D4B",
"^  c #7A5445",
"/  c #675C55",
"(  c #775D53",
")  c #744E41",
"_  c #5E625C",
"`  c #5B6157",
"'  c #7D614C",
"]  c #77624A",
"[  c #62645D",
"{  c #68655A",
"}  c #7A6455",
"|  c #69604F",
" . c #5F6661",
".. c #636661",
"X. c #656A64",
"o. c #6A6A64",
"O. c #6A6A66",
"+. c #777A75",
"@. c #72746C",
"#. c #92503B",
"$. c #835C44",
"%. c #835D4B",
"&. c #885948",
"*. c #945A4C",
"=. c #92564E",
"-. c #A55A54",
";. c #AB5B4E",
":. c #84634C",
">. c #8B644B",
",. c #8C694D",
"<. c #866146",
"1. c #93654C",
"2. c #956A4D",
"3. c #846451",
"4. c #8B6552",
"5. c #8C6A53",
"6. c #866B57",
"7. c #936C54",
"8. c #9A6C53",
"9. c #986857",
"0. c #9B7254",
"q. c #95735B",
"w. c #9C755B",
"e. c #977559",
"r. c #8B725A",
"t. c #A96554",
"y. c #A3755C",
"u. c #A47A5C",
"i. c #AA7C5D",
"p. c #A37555",
"a. c #B27B5C",
"s. c #AC6A54",
"d. c #897567",
"f. c #9C7662",
"g. c #997965",
"h. c #876F64",
"j. c #BB6C62",
"k. c #A57B62",
"l. c #AB7D63",
"z. c #A97965",
"x. c #B67B64",
"c. c #A76F62",
"v. c #C77A71",
"b. c #C9746C",
"n. c #7B827C",
"m. c #AC805E",
"M. c #B4825D",
"N. c #958374",
"B. c #AD8264",
"V. c #A9836A",
"C. c #B38464",
"Z. c #B3856A",
"A. c #B58A6B",
"S. c #BB8B6C",
"D. c #BA8767",
"F. c #BB916D",
"G. c #AA8977",
"H. c #BA8D72",
"J. c #B78C75",
"K. c #BD9373",
"L. c #BB947A",
"P. c #AD907E",
"I. c #C28C6D",
"U. c #C38969",
"Y. c #C4926D",
"T. c #C9926E",
"R. c #C38D73",
"E. c #C98A77",
"W. c #D28977",
"Q. c #C39373",
"!. c #CA9474",
"~. c #CC9A75",
"^. c #CC9B7B",
"/. c #C6977A",
"(. c #D29C75",
"). c #D29C7B",
"_. c #D49379",
"`. c #CEA17A",
"'. c #D4A27C",
"]. c #D9A47C",
"[. c #DAA67A",
"{. c #E0AB7E",
"}. c #92918C",
"|. c #BA9885",
" X c #A3928A",
".X c #B1AEA6",
"XX c #ABA096",
"oX c #C99C83",
"OX c #D49E82",
"+X c #DA9A82",
"@X c #DD8881",
"#X c #E59A8A",
"$X c #EA958F",
"%X c #CEA488",
"&X c #D4A283",
"*X c #DAA584",
"=X c #DCAA84",
"-X c #D5A58A",
";X c #DCAB8B",
":X c #D9A68A",
">X c #DDB18B",
",X c #D9AC94",
"<X c #DEB293",
"1X c #DBB599",
"2X c #CAAB96",
"3X c #E2AD84",
"4X c #E3AD8B",
"5X c #E7A789",
"6X c #E4B28D",
"7X c #E9B38D",
"8X c #E7B68C",
"9X c #E7AB92",
"0X c #E4B493",
"qX c #EAB593",
"wX c #E6B993",
"eX c #EBBA94",
"rX c #E4B59B",
"tX c #E6B99D",
"yX c #EDBC9A",
"uX c #EAB59A",
"iX c #F2BD9C",
"pX c #F5BA98",
"aX c #F3A298",
"sX c #DEB6A1",
"dX c #ECBDA4",
"fX c #E4BBA3",
"gX c #F2BEA3",
"hX c #FCBDA3",
"jX c #ECC19C",
"kX c #EFC094",
"lX c #F2C29C",
"zX c #F6C19A",
"xX c #EEC3A2",
"cX c #ECC2AB",
"vX c #F4C3A3",
"bX c #FBC5A5",
"nX c #F3C5AB",
"mX c #F5CAAC",
"MX c #FBCBAC",
"NX c #FAC9A7",
"BX c #F3CBB5",
"VX c #FBCDB2",
"CX c #F3CBB6",
"ZX c #FDD3B4",
"AX c #FDD4BB",
"SX c #FDDBBC",
"DX c #FBD7B5",
"FX c #F5CEAF",
"GX c #FCE0BE",
"HX c #FEDBC3",
"JX c #FCD8C4",
"KX c #FFE2C3",
/* pixels */
"        v 5 > > 2 R } | ] ] W ] ] <.,.0.p.m.m.m.m.m.e.<.F C b d 7 : O . . . $ = L H 0 & n .X.Xd.{ J N.K n..X.X+.i & - o         ",
"        e 7 < > 7 R d.] ' 6.r.w.m.m.F.F.Y.Y.Y.F.M.M.m.e.,.W D M b q 6 % . . + X 0 t 0 n 9 }.}.n 7 4 K [  .P K K 9 3 o   o       ",
"        6 6 7 5 x | r.r.e.B.A.F.T.~.(.[.[.(.T.Y.M.M.m.0.2.<.' F C M d 6 @ O # & X 1 - I H 9 X % 3 = 9 P H P v - X o o           ",
"        w w w r b ] N.m.A.F.Y.~.(.(.(.(.[.`.(.T.Y.M.m.m.0.,.<.' F D M m 7 : + + + + = 9 P ; o ; - & 4 v 0 3 X o X o ;         X ",
"      o r q x b ,.N.A.K.`.`.(.(.[.(.[.[.].].'.).T.Y.M.M.p.0.2.<.<.Q E C b 7 * . O . # 0 H 1 + & ; 3 t i & X o ; X o X o         ",
"        9 q M 6.A./.`.`.`.`.[.[.).].].3X=X*X].].(.Y.D.C.u.0.2.,.<.<.] W C b q : . < * 1 * 0 = t 0 X t u i & & ;   u }.        o ",
"        : f e.K.`.[.=X[.].[.[.=X*X{.3X3X3X=X].).(.T.U.M.i.p.0.2.,.,.,.] F Z f 7 * O $ 1 + = * 9 v o 9 y 0 - X   u XX}.          ",
"      o 5 ~ F.`.[.{.3X[.3X3X=X3X3X3X3X4X3X].].].(.T.Y.M.B.i.u.0.0.,.:.:.<.W C M w : + @ $ $ $ 4 v & 0 y 0 o & K }.}.}.          ",
"        b V.~.[.[.{.{.{.3X3X3X7X3X4X3X3X4X3X*X).).!.E.S.D.l.u.k.w.7.7.,.<.G D N d 7 % % $ = < < v i & y 3 u @.}.n.n.n.          ",
"      o ,./.[.{.{.{.{.3X3X7X3X7X7X4X7X4X4X4X*X].).).!.Q.I.Z.l.Z.B.e.0.r.,.] W N C x 2 $ $ * * * 0 i & 0 Y @.n.@.@.n.n.          ",
"        F.'.[.{.{.{.8X8X7X6X6X7X6X7X6X4X3X4X*X*X+XOX^.Q.H.Z.Z.Z.m.m.e.e.,.:.W W D b q < @ % * $ i 1 0 Y O.X.` X.X.n.@.o         ",
"        `.[.{.7X8X{.8X8X7X7X7X6X6X6X6X4X4X;X*X].OXOX^./.K.H.H.J.V.V.m.r.r.} F D D M d 7 $ + @ + $ i n K K Y ` P  . .X.o         ",
"  o     [.[.{.7X7X7XqXqXqXqXqX6X4X4X0X6X4X;X*X'.+X).OX^.Q.S.H.H.G.V.' D C T F F D D M q : $ + O $ < 1 t n n K K P P _           ",
"  o   o [.{.3X7X7XpXqXyXyXuXeX0X0X0XqX9X0X4X:X&X*X).&X^.R.H.K.J.G.] f p p x d f M C T l 7 $ + O O * $ 0 y y H H K Y I           ",
"        =X3X7XyXyXiXyXiXiXyXuXqX0XqXwX0X9X;X:X&X&XoX&X).R.|.P.c.C p p g F E V f f b N N d < + + X . O = u e v H K P Y           ",
"  o     6X7XpXjXlXlXvXgXyXyXuXwX0XuXqX0X0X4X;X&X&XOX-XOXoXG.3.z , d W g.g.g.r.' C b M R m w : % + . . . 0 t t H H K Y           ",
"        4X7XjXvXvXxXvXxXxXyXyXtXrXtX<X<X0X<X;X-X-XOXoXJ.g./ d p g e.Q.Q.S.G.w.,.' D C T D m 5 * % < , > * e u H n K K           ",
"  o     4XpXlXbXvXvXnXxXxXvXxXxXdXdXrXrXrX;X:X-XoXOXL.7.C z z A w.%X^.(.K.z.9.>.:.W T ! R C d 1 $ f ! T : 4 t y n K K           ",
"        7XeXkXNXbXvXnXBXBXmXnXnXnXnXtXtXrX;X:X-XoXA.c.~ z z ) k.^.!.*X).R.z.9.4.' G W W ] ! M q 2 g ) &.z 2 9 t v H K           ",
"  o     7XpXeXvXbXnXmXVXBXBXBXFXBXBXdXtX<X,X-X&XJ.k.3.Z A Q i./.].6X].!.a.9.Q F W W W W W ] R f 2 g S S $.7 9 t t H K           ",
"  o     qXeXkXvXbXmXVXAXJXJXJXCXCXCXdXrX<X,X&X^.H.w.%.F Q w.I.].4X*X!.S.Z.1.^ M D D G ] ' :.] N q p S #.Q x 9 9 e H K           ",
"        7XpXeXbXnXVXVXJXJXJXJXJXCXCXdXfX1X:XOX!.A.8.4.5.w.C.!.*X).^.sX%Xw.%.V M h b D Q >.,.} R m p B G G f 4 u t H K           ",
"        4XqXzXvXnXVXCXJXJXJXJXdXdXCXdXdXfX:XoXR.l.w.4.&.8.U.!.^.-XdXP.! a g f j h g F %.5.5.3.! M M F S F M 5 e t n H           ",
"        3X7XlXzXgXgXJXJXJXJXJXdXdXdXdXnXgX9X^.!.z.>.$.&.8.C.H.J.sXP.d.7 d z ( / V E %.,.9.7.3.~ R h b G 3.M 9 w t y v           ",
"      o ;XeXpXvXnXcXAXBXCXdXrX,XfXsXfXhXfX<X&XQ.k.$.S A $.y.k.Z.d.R ! p h ! 6.~ %.7.y.i.B.w.5.~ ( M h A E b 6 e e y y           ",
"        =X8XeXeXxXxXcXBXfX,XoXoX2X,XfXJXmXxX%XR.z.$.B g S 7.7.&.g.2XT ) %.f.q.4.y.Z.S.K.Q.A.w.3.( E h h ) b < w e e y           ",
"        [.qXeXiXwXmXcX2X|.f.d.f.x.oX9XdXZXmX<XoXz.$.B b c ^ &.c N.XXoX|.Z.y.y.Z.I.!.).).).E.y.4.^ ( h a Z l : 9 e e y           ",
"o     o !.7XeXyXtX,XP.6.F F >.q.S.^.:X9XvXmXyX:XH.>.B g h A 3.4.g.z.|.x.S.R.^.)._.).(.(.!.I.i.7.~ ~ g h ) j < w e e y           ",
"        B.;XeX0X2Xf.' :.5.f.Z.S.!.^.*X7XlXMXnX4XOXz.S g h h F %.9.V.Z.R.!.!.!.^.).[.(.(.~.I.l.7.4.~ C V E j < 9 w e t           ",
"        <.oXtX%XV.:.6.V.K.oX).).~.!.).*XeXmXmX9XOXA.^ c B b A Q y.*.x.C.I.I.T._.).).].).(.R.C.7.4.' W A T d 4 9 9 e t           ",
"      o g e.%X`.Q V.%X1XrX0X*X).).T.T.~.4XyXiX9X+XE.1.S B b M F &.z.z.D.U.U.~.T.!.).].&X!.R.x.w.4.} ~ Z T x 4 9 9 9 e           ",
"        > A J.A.>.%XxXjXqXqX9XOXT.U.U.T.6XiXuX9X:XE.c.^ V b b Z Q 4.k.x.U.U._._._.).*X&X_.R.Z.k.7.' W ) R 7 % 9 5 9 u           ",
"        @ 7 ] k.B.vXwXjXyXyX+XU.a.t.;.p.*XuXpX5X#XW.c.9.^ b f g V %.w.z.U.E.!.).).*X+X).).!.A.y.7.3.' ~ j % 0 - 4 9 0           ",
"        $ @ f Q K.tXrXqXiX;XoXR.>.V #.7./.dX9X9X5XW.x.z.9.F h p a a ) c.J.U.!.^.*X&X&X*XOX/.A.k.7.>.~ ~ f + - 0 1 0 9           ",
"        * O > d f.1X0XqX!.;XoX} p x F z.OXfX9X9X+X+XE.A.z.3.A g h a a S k.R._.OX*X*X:X*XOX^.H.B.f.5.3.' T * = i 4 0 0           ",
"        # @ O 2 b %X;X).).%XW R f s &.S.:X9X5X5X9X5X+XE.z.9.~ ) g c a 8 S J.^.&X:X4X4X&XOX^.K.Z.k.r.3.3.! 9 = = 1 - -       o   ",
"        # # . $ > ,.<X'.~.7.! R a Q A.!.9XiXpX5XaX9X9XOXR.y.4.%.~ ^ c s h p.U.+X4X4X;X*X&X^.K.A.k.q.:.' } k * = * * =           ",
"      o 4 % + @ > 8 |.&XY.S e.XXV.|.J.-XvXuXqX9XbXgXdXuXR.9.&.^ 4.q.^ s h 1.l.OX:X4X4X:X&X^.!.S.Z.q.5.%.3.J # + O & 1           ",
"o     o k = # $ $ > :.,XD.#.y.V.%XJ.,XdXtXnXgX9XVXVXmXuXE.-.&.h a h.=.a S y.x.I.^.&X*X&X`.^.!.S.z.q.6.:.4./ @ . : 4 k           ",
"        n + + $ 0 @ 8 2X/.Q.R.OX-X<XxXdXgXhXhXhXgXVXtX,XoXx.&., a c c S 1.y.x.S.I.!.&X'.^./.K.D.z.f.5.>.%.( : 1 r j L           ",
"        +.% e n 6 1 @ ,.qX3X=X0XwXyXvXiXiXMXMXuX0X;XqXuX_.Z.>.A c g c *.9.y.D.S.R.Q.!.^.K.F.S.V.k.w.4.3.3.%.x q k j J o     o   ",
"o   o   }.+.@.[ K 5 @ s ;X;X6X8XyXlXiXiXiXNXVXNX9X5XE._.+X!.i.7.c.&.*.2.y.i.i.C.D.A.D.C.A.A.A.m.k.w.7.4.4.( q w k j J           ",
"    o   N.+.{ [ { / m 7 W xX<XpXzXiXzXbXbXNXVXAXgX+X#.;.E.5X;X&X^.K.C.C.y.p.k.z.z.Z.K.H.B.B.V.A.k.y.9.3.4.( 6 1 w d j       o   ",
"        @.X.[ X.o.{ L J b L.wXpXzXiXzXbXMXVXAXAXVXpX_._.5XuXiX;X;XlX).S.H.x.z.c.c.k.V.H.L.F.A.H.B.w.q.4.4.( 6 1 w d k     o     ",
"        X.X.X.O.O._ P [ ` ] rXpXzXzXNXbXMXZXAXAXAXVXMXhXpXzXvX0X*X0XqXS.t.c.-.-.=.*.9.y.H.K.H.S.B.w.e.6.5.~ x q w j J           ",
"    o   X. ...X. .@.[ [ [ R G.cXzXNXbXNXZXSXSXHXAXMXMXpXbXiXeX9X5X:Xv.-.-.-.c =.&.*.*.1.y.V.A.S.Z.V.e.,.4.~ M d k J ( o o   o   ",
"o       X.X._ ..X.O.[ U X.{ } 2XlXbXbXMXDXGXHXHXAXVXnXyXpXeXgXpX#XoXj.-.-.=.-.-.=.-.*.*.p.z.Z.B.V.V.w.7.>.E V l m T /   o   o   ",
"        X. .O.X.X.o.o.[ X.X.R d.lXzXbXNXSXGXSXGXZXZXNXlXyXqXiX!.x.@X-.=.-.b.j.-.=.=.=.1.k.l.B.l.w.w.7.7.<.^ ) z / R /   o o     ",
"        X.X.X. .O. . . . .X.../ J.vXNXNXDXSXHXGXSXMXMXjXyXiX+Xb.b.b.;.b.b.v.v.;.=.&.5.w.B.A.B.B.e.7.e.5.G G Q A W } o.  o       ",
"        .... . .X. .X.X. .X.[ [ ] 2XvXzXDXKXGXGXDXZXMXeXnX9Xs.b.j.b.b.@X$X$Xv.j.#.8.B.A.B.A.V.w.e.,.5.>.Q G <.G J r.h.      o   ",
"         . ._ _ X. . .X.....{ { ` N.mXNXDXGXSXDXSXFXxXvXnXW.;.b.$X$X$X$X$Xb.j.t.a.U.~.K.D.Z.V.w.7.,.>.$.#.] <.#.C ' N.  o   o   ",
"         . . .[ X. . . .......[ X.| P.GXZXSXDXSXDXBXjXxX:Xs.j.aXaX$XaX@Xb.t.s.S.(.[.=X`.K.S.B.9.7.5.<.$.<.,.,.1.Q D G.      o   ",
"        [ X.X.O.X. . . .....[ [ X.{ } 2XFXMXZXDXDXDXjXwX`.`.#XaX@X_.W.b.s.a.).5X3X9X4X).S.C.y.7.,.,.<.<.1.1.2.2.7.A r.          ",
"        ....[ X.O.X.O.X..._ ....O.{ { r.1XmXNXjXMXDXjXkXeXlX9X5X#X_.U.U.).0XeXqXpXqX+XT.A.u.0.0.,.>.<.&.1.2.8.0.8.>.E           ",
"        ......[ O.O.X.O... .....{ [ { { N.1XxXjXNXFXFXjXjXpX7X8X5X].5X4XiXMXmXvXyX7X+X!.A.u.7.q.e.8.,.>.1.2.p.i.p.p.%.  o     o ",
"        ..o.o.X.O. .X.O.O.O.....{ @.o.{ | N.sXvXNXNXmXjXwXzXlX>X7X6XqXtXnXZXMXvX8X9X+XT.B.0.w.V.l.w.0.1.1.0.u.B.a.0.f.          ",
"        X.o.[ [  .X.O...........[ [ o.o.{ ! g.1XjXtXlXjXwXjXyXwXeXyXjXyXMXZXlX8X4X;XOXH.u.u.H./.A.i.p.0.1.8.m.D.C.a.p.o         ",
"        o.[ X...X. ......... .U U ..o.{ [ { | ' ,XwXjXkXwX8XjXjXyXeXjXlXNXjXeX;X&XQ.l.l.H.%X%X^.K.B.u.u.0.p.m.D.S.M.a.o         ",
"        [ [ [ X..._ ....X.X.X. .U [ ....O.X.I N W G.,X1XwX<XwX<XqX8XeXwX8XjXeX;XS.m.F.%X0X<X-X&XK.C.M.B.p.p.m.D.Q.D.M.          ",
"        X.{ [ _  .[ ...... .....U U [ O.O. .` L N N 6.G.%X0X0XtX0X<X<XwX8X=X`.F.F.`.8X1X<X>X=X%X~.S.S.D.M.i.x.S.Q.U.T.          ",
"        o.{ [ ` _ _ ....[ U [ U ` P U _ [ ..U J ` L @.g s Q q.k.V.A.`.~.>X%X`.>XwXkXjX>X>X8X>X=X'.^./.F.C.a.C.Y.T.T.Q.          ",
"        O.o.[ _  ._ / [ U [ ..U  . .U P U ../ I J { N.d , 6 7 , , s F.DXkXkXjXkXkX8X>XkXkXwX>X>X=X'.^.!.U.D.U.T.!.(.(.          ",
"        o.o.[ [ [ U U _ [ ....U  ._ U U _ U I Y I }. XM x d x x b b s B.jXkXkXkX8XkXkXwX>XkXwX>X>X&X'.!.T.I.Y.~.&X].].          ",
"        ..[ [ U ..U U _ _ _ / I /  .P U [ [ [ P d.2XN.J M x 2 d N r s s F.kXkXkXkXeX8X8XwXwX8X8X=X=X).~.~.~.(.(.;X3X=X          "
};
